<svg width="16" height="16" viewBox="0 0 16 16" fill="none" xmlns="http://www.w3.org/2000/svg">
<mask id="path-1-inside-1_4469_6350" fill="white">
<path d="M7.99999 8.78145L11.3 5.48145L12.2427 6.42411L7.99999 10.6668L3.75732 6.42411L4.69999 5.48145L7.99999 8.78145Z"/>
</mask>
<path d="M7.99999 8.78145L11.3 5.48145L12.2427 6.42411L7.99999 10.6668L3.75732 6.42411L4.69999 5.48145L7.99999 8.78145Z" fill="#09121F"/>
<path d="M7.99999 8.78145L6.93933 9.84211L7.99999 10.9028L9.06065 9.84211L7.99999 8.78145ZM11.3 5.48145L12.3607 4.42079L11.3 3.36012L10.2393 4.42079L11.3 5.48145ZM12.2427 6.42411L13.3033 7.48477L14.364 6.42411L13.3033 5.36345L12.2427 6.42411ZM7.99999 10.6668L6.93933 11.7274L7.99999 12.7881L9.06065 11.7274L7.99999 10.6668ZM3.75732 6.42411L2.69666 5.36345L1.636 6.42411L2.69666 7.48477L3.75732 6.42411ZM4.69999 5.48145L5.76065 4.42079L4.69999 3.36013L3.63933 4.42079L4.69999 5.48145ZM9.06065 9.84211L12.3607 6.54211L10.2393 4.42079L6.93933 7.72079L9.06065 9.84211ZM10.2393 6.54211L11.182 7.48477L13.3033 5.36345L12.3607 4.42079L10.2393 6.54211ZM11.182 5.36345L6.93933 9.60612L9.06065 11.7274L13.3033 7.48477L11.182 5.36345ZM9.06065 9.60612L4.81798 5.36345L2.69666 7.48477L6.93933 11.7274L9.06065 9.60612ZM4.81798 7.48477L5.76065 6.54211L3.63933 4.42079L2.69666 5.36345L4.81798 7.48477ZM3.63933 6.54211L6.93933 9.84211L9.06065 7.72079L5.76065 4.42079L3.63933 6.54211Z" fill="#00838F" mask="url(#path-1-inside-1_4469_6350)"/>
</svg>
