<svg width="22" height="22" viewBox="0 0 22 22" fill="none" xmlns="http://www.w3.org/2000/svg">
<path d="M10.2502 10.0835V10.8335H11.0002H13.9168V11.1668H11.0002H10.2502V11.9168V12.8562L8.39416 11.0002L10.2502 9.14416V10.0835ZM11.0002 2.5835C15.6459 2.5835 19.4168 6.35438 19.4168 11.0002C19.4168 15.6459 15.6459 19.4168 11.0002 19.4168C6.35438 19.4168 2.5835 15.6459 2.5835 11.0002C2.5835 6.35438 6.35438 2.5835 11.0002 2.5835ZM11.0002 19.0835C15.466 19.0835 19.0835 15.466 19.0835 11.0002C19.0835 6.53428 15.466 2.91683 11.0002 2.91683C6.53428 2.91683 2.91683 6.53428 2.91683 11.0002C2.91683 15.466 6.53428 19.0835 11.0002 19.0835Z" fill="#09121F" stroke="#00838F" stroke-width="1.5"/>
</svg>
