<svg width="22" height="22" viewBox="0 0 22 22" fill="none" xmlns="http://www.w3.org/2000/svg">
<path d="M15.0833 2.74996V3.24996H15.5833H19.25C19.3605 3.24996 19.4665 3.29386 19.5446 3.372C19.6228 3.45014 19.6667 3.55612 19.6667 3.66663V18.3333C19.6667 18.4438 19.6228 18.5498 19.5446 18.6279C19.4665 18.7061 19.3605 18.75 19.25 18.75H2.75001C2.6395 18.75 2.53352 18.7061 2.45538 18.6279C2.37724 18.5498 2.33334 18.4438 2.33334 18.3333V3.66663C2.33334 3.55612 2.37724 3.45014 2.45538 3.372C2.53352 3.29386 2.6395 3.24996 2.75001 3.24996H6.41668H6.91668V2.74996V1.41663H7.75001V2.74996V3.24996H8.25001H13.75H14.25V2.74996V1.41663H15.0833V2.74996ZM14.25 4.58329V4.08329H13.75H8.25001H7.75001V4.58329V5.91663H6.91668V4.58329V4.08329H6.41668H3.66668H3.16668V4.58329V8.24996V8.74996H3.66668H18.3333H18.8333V8.24996V4.58329V4.08329H18.3333H15.5833H15.0833V4.58329V5.91663H14.25V4.58329ZM18.8333 10.0833V9.58329H18.3333H3.66668H3.16668V10.0833V17.4166V17.9166H3.66668H18.3333H18.8333V17.4166V10.0833Z" fill="#09121F" stroke="#00838F"/>
</svg>
