<svg width="24" height="24" viewBox="0 0 24 24" fill="#7986CB" xmlns="http://www.w3.org/2000/svg">
<path d="M12 15C16.08 15 19.446 18.054 19.938 22H4.06201C4.55401 18.054 7.92001 15 12 15ZM10.187 17.28C8.75301 17.734 7.54601 18.713 6.80001 20H12L10.187 17.28ZM13.814 17.28L12 20H17.199C16.454 18.713 15.247 17.734 13.814 17.28ZM18 2V8C18 11.314 15.314 14 12 14C8.68601 14 6.00001 11.314 6.00001 8V2H18ZM8.00001 8C8.00001 10.21 9.79001 12 12 12C14.21 12 16 10.21 16 8H8.00001ZM16 4H8.00001V6H16V4Z" fill="#7986CB"/>
</svg>
