<svg width="24" height="25" viewBox="0 0 24 25" fill="none" xmlns="http://www.w3.org/2000/svg">
<path d="M11 5.49992H6C5.46957 5.49992 4.96086 5.71063 4.58579 6.0857C4.21071 6.46078 4 6.96948 4 7.49992V18.4999C4 19.0304 4.21071 19.5391 4.58579 19.9141C4.96086 20.2892 5.46957 20.4999 6 20.4999H17C17.5304 20.4999 18.0391 20.2892 18.4142 19.9141C18.7893 19.5391 19 19.0304 19 18.4999V13.4999M17.586 4.08592C17.7705 3.8949 17.9912 3.74253 18.2352 3.63772C18.4792 3.5329 18.7416 3.47772 19.0072 3.47542C19.2728 3.47311 19.5361 3.52371 19.7819 3.62427C20.0277 3.72484 20.251 3.87334 20.4388 4.06113C20.6266 4.24891 20.7751 4.47222 20.8756 4.71801C20.9762 4.9638 21.0268 5.22716 21.0245 5.49272C21.0222 5.75828 20.967 6.02072 20.8622 6.26473C20.7574 6.50874 20.605 6.72942 20.414 6.91392L11.828 15.4999H9V12.6719L17.586 4.08592Z" stroke="#78909C" stroke-width="2" stroke-linecap="round" stroke-linejoin="round"/>
</svg>
