<svg width="22" height="22" viewBox="0 0 22 22" fill="none" xmlns="http://www.w3.org/2000/svg">
<path d="M5.65551 17H6.0093L6.12702 16.6663C6.28198 16.2272 6.56935 15.8469 6.94953 15.5778C7.3297 15.3088 7.78396 15.1644 8.24967 15.1644C8.71539 15.1644 9.16965 15.3088 9.54982 15.5778C9.92999 15.8469 10.2174 16.2272 10.3723 16.6663L10.4901 17H10.8438H19.6663V17.8333H10.8438H10.4901L10.3723 18.1669C10.2174 18.6061 9.92999 18.9864 9.54982 19.2554C9.16965 19.5244 8.71539 19.6689 8.24967 19.6689C7.78396 19.6689 7.3297 19.5244 6.94953 19.2554C6.56935 18.9864 6.28198 18.6061 6.12702 18.1669L6.0093 17.8333H5.65551H2.33301V17H5.65551ZM11.1555 10.5833H11.5093L11.627 10.2497C11.782 9.81049 12.0694 9.43018 12.4495 9.16118C12.8297 8.89218 13.284 8.74772 13.7497 8.74772C14.2154 8.74772 14.6696 8.89218 15.0498 9.16118C15.43 9.43018 15.7174 9.81049 15.8723 10.2497L15.9901 10.5833H16.3438H19.6663V11.4166H16.3438H15.9901L15.8723 11.7503C15.7174 12.1894 15.43 12.5698 15.0498 12.8388C14.6696 13.1078 14.2154 13.2522 13.7497 13.2522C13.284 13.2522 12.8297 13.1078 12.4495 12.8388C12.0694 12.5698 11.782 12.1894 11.627 11.7503L11.5093 11.4166H11.1555H2.33301V10.5833H11.1555ZM5.65551 4.16663H6.0093L6.12702 3.833C6.28198 3.39382 6.56935 3.01352 6.94953 2.74452L6.66605 2.34389L6.94953 2.74452C7.3297 2.47551 7.78396 2.33105 8.24967 2.33105C8.71539 2.33105 9.16965 2.47551 9.54982 2.74452L9.83862 2.33636L9.54982 2.74452C9.92999 3.01352 10.2174 3.39382 10.3723 3.833L10.4901 4.16663H10.8438H19.6663V4.99997H10.8438H10.4901L10.3723 5.3336C10.2174 5.77278 9.92999 6.15308 9.54982 6.42209C9.16965 6.69109 8.71539 6.83555 8.24967 6.83555C7.78396 6.83555 7.3297 6.69109 6.94953 6.42209C6.56935 6.15308 6.28198 5.77278 6.12702 5.3336L6.0093 4.99997H5.65551H2.33301V4.16663H5.65551ZM9.25141 16.4149L8.89786 16.7685L9.25141 16.4149C8.98573 16.1492 8.6254 16 8.24967 16C7.87395 16 7.51362 16.1492 7.24794 16.4149L7.60149 16.7685L7.24794 16.4149C6.98226 16.6806 6.83301 17.0409 6.83301 17.4166C6.83301 17.7924 6.98226 18.1527 7.24794 18.4184C7.51362 18.684 7.87395 18.8333 8.24967 18.8333C8.6254 18.8333 8.98573 18.684 9.25141 18.4184C9.51709 18.1527 9.66634 17.7924 9.66634 17.4166C9.66634 17.0409 9.51709 16.6806 9.25141 16.4149ZM8.24967 5.99997C8.6254 5.99997 8.98573 5.85071 9.25141 5.58504C9.51709 5.31936 9.66634 4.95902 9.66634 4.5833C9.66634 4.20758 9.51709 3.84724 9.25141 3.58157C8.98573 3.31589 8.6254 3.16663 8.24967 3.16663C7.87395 3.16663 7.51362 3.31589 7.24794 3.58157C6.98226 3.84724 6.83301 4.20758 6.83301 4.5833C6.83301 4.95902 6.98226 5.31936 7.24794 5.58504C7.51362 5.85071 7.87395 5.99997 8.24967 5.99997ZM13.7497 12.4166C14.1254 12.4166 14.4857 12.2674 14.7514 12.0017C15.0171 11.736 15.1663 11.3757 15.1663 11C15.1663 10.6242 15.0171 10.2639 14.7514 9.99823C14.4857 9.73256 14.1254 9.5833 13.7497 9.5833C13.3739 9.5833 13.0136 9.73256 12.7479 9.99823C12.4823 10.2639 12.333 10.6242 12.333 11C12.333 11.3757 12.4823 11.736 12.7479 12.0017C13.0136 12.2674 13.3739 12.4166 13.7497 12.4166Z" fill="#FAFBFF" stroke="#00838F"/>
</svg>
