<svg width="22" height="22" viewBox="0 0 22 22" fill="none" xmlns="http://www.w3.org/2000/svg">
<path d="M5.65575 17H6.00954L6.12726 16.6663C6.28222 16.2272 6.5696 15.8469 6.94977 15.5778C7.32995 15.3088 7.7842 15.1644 8.24992 15.1644C8.71564 15.1644 9.16989 15.3088 9.55006 15.5778C9.93024 15.8469 10.2176 16.2272 10.3726 16.6663L10.4903 17H10.8441H19.6666V17.8333H10.8441H10.4903L10.3726 18.1669C10.2176 18.6061 9.93024 18.9864 9.55007 19.2554C9.16989 19.5244 8.71564 19.6689 8.24992 19.6689C7.7842 19.6689 7.32995 19.5244 6.94977 19.2554C6.5696 18.9864 6.28222 18.6061 6.12726 18.1669L6.00954 17.8333H5.65575H2.33325V17H5.65575ZM11.1558 10.5833H11.5095L11.6273 10.2497C11.7822 9.81049 12.0696 9.43018 12.4498 9.16118C12.8299 8.89218 13.2842 8.74772 13.7499 8.74772C14.2156 8.74772 14.6699 8.89218 15.0501 9.16118C15.4302 9.43018 15.7176 9.81049 15.8726 10.2497L15.9903 10.5833H16.3441H19.6666V11.4166H16.3441H15.9903L15.8726 11.7503C15.7176 12.1894 15.4302 12.5698 15.0501 12.8388C14.6699 13.1078 14.2156 13.2522 13.7499 13.2522C13.2842 13.2522 12.8299 13.1078 12.4498 12.8388C12.0696 12.5698 11.7822 12.1894 11.6273 11.7503L11.5095 11.4166H11.1558H2.33325V10.5833H11.1558ZM5.65575 4.16663H6.00954L6.12726 3.833C6.28222 3.39382 6.5696 3.01352 6.94977 2.74452L6.66629 2.34389L6.94977 2.74452C7.32995 2.47551 7.7842 2.33105 8.24992 2.33105C8.71564 2.33105 9.16989 2.47551 9.55006 2.74452L9.83887 2.33636L9.55006 2.74452C9.93024 3.01352 10.2176 3.39382 10.3726 3.833L10.4903 4.16663H10.8441H19.6666V4.99997H10.8441H10.4903L10.3726 5.3336C10.2176 5.77278 9.93024 6.15308 9.55006 6.42209C9.16989 6.69109 8.71564 6.83555 8.24992 6.83555C7.7842 6.83555 7.32995 6.69109 6.94977 6.42209C6.5696 6.15308 6.28222 5.77278 6.12726 5.3336L6.00954 4.99997H5.65575H2.33325V4.16663H5.65575ZM9.25165 16.4149L8.8981 16.7685L9.25165 16.4149C8.98598 16.1492 8.62564 16 8.24992 16C7.8742 16 7.51386 16.1492 7.24819 16.4149L7.60174 16.7685L7.24818 16.4149C6.98251 16.6806 6.83325 17.0409 6.83325 17.4166C6.83325 17.7924 6.98251 18.1527 7.24819 18.4184C7.51386 18.684 7.8742 18.8333 8.24992 18.8333C8.62564 18.8333 8.98598 18.684 9.25165 18.4184C9.51733 18.1527 9.66658 17.7924 9.66658 17.4166C9.66658 17.0409 9.51733 16.6806 9.25165 16.4149ZM8.24992 5.99997C8.62564 5.99997 8.98598 5.85071 9.25165 5.58504C9.51733 5.31936 9.66658 4.95902 9.66658 4.5833C9.66658 4.20758 9.51733 3.84724 9.25165 3.58157C8.98598 3.31589 8.62564 3.16663 8.24992 3.16663C7.87419 3.16663 7.51386 3.31589 7.24818 3.58157C6.98251 3.84724 6.83325 4.20758 6.83325 4.5833C6.83325 4.95902 6.98251 5.31936 7.24818 5.58504C7.51386 5.85071 7.87419 5.99997 8.24992 5.99997ZM13.7499 12.4166C14.1256 12.4166 14.486 12.2674 14.7517 12.0017C15.0173 11.736 15.1666 11.3757 15.1666 11C15.1666 10.6242 15.0173 10.2639 14.7517 9.99823C14.486 9.73256 14.1256 9.5833 13.7499 9.5833C13.3742 9.5833 13.0139 9.73256 12.7482 9.99823C12.4825 10.2639 12.3333 10.6242 12.3333 11C12.3333 11.3757 12.4825 11.736 12.7482 12.0017C13.0139 12.2674 13.3742 12.4166 13.7499 12.4166Z" fill="#FAFBFF" stroke="#00838F"/>
</svg>
