<svg width="24" height="24" viewBox="0 0 24 24" fill="none" xmlns="http://www.w3.org/2000/svg">
<path d="M22.501 12.2331C22.501 11.3698 22.4296 10.7398 22.2748 10.0864H12.2153V13.983H18.12C18.001 14.9514 17.3582 16.4097 15.9296 17.3897L15.9096 17.5202L19.0902 19.9349L19.3106 19.9564C21.3343 18.1247 22.501 15.4297 22.501 12.2331Z" fill="#4285F4"/>
<path d="M12.2145 22.5001C15.1073 22.5001 17.5358 21.5667 19.3097 19.9567L15.9287 17.39C15.024 18.0083 13.8097 18.44 12.2145 18.44C9.38118 18.44 6.97645 16.6083 6.11922 14.0767L5.99358 14.0871L2.68632 16.5955L2.64307 16.7133C4.40495 20.1433 8.02399 22.5001 12.2145 22.5001Z" fill="#34A853"/>
<path d="M6.11997 14.0765C5.89379 13.4232 5.76289 12.7231 5.76289 11.9998C5.76289 11.2764 5.89379 10.5764 6.10807 9.92313L6.10208 9.78398L2.75337 7.23535L2.64381 7.28642C1.91765 8.70977 1.50098 10.3081 1.50098 11.9998C1.50098 13.6915 1.91765 15.2897 2.64381 16.7131L6.11997 14.0765Z" fill="#FBBC05"/>
<path d="M12.2145 5.55997C14.2264 5.55997 15.5835 6.41163 16.3574 7.12335L19.3812 4.23C17.5241 2.53834 15.1074 1.5 12.2145 1.5C8.02402 1.5 4.40496 3.85665 2.64307 7.28662L6.10734 9.92332C6.97647 7.39166 9.38122 5.55997 12.2145 5.55997Z" fill="#EB4335"/>
</svg>
