<svg width="25" height="25" viewBox="0 0 25 25" fill="currentColor" xmlns="http://www.w3.org/2000/svg">
<path d="M6 19.5V19H5.5H4V18H5.5H6V17.5V15.5V15H5.5H4V14H5.5H6V13.5V11.5V11H5.5H4V10H5.5H6V9.5V7.5V7H5.5H4V6H5.5H6V5.5V3.5C6 3.22414 6.22414 3 6.5 3H20.5C20.7759 3 21 3.22414 21 3.5V21.5C21 21.7759 20.7759 22 20.5 22H6.5C6.22414 22 6 21.7759 6 21.5V19.5ZM20 4.5V4H19.5H7.5H7V4.5V20.5V21H7.5H19.5H20V20.5V4.5ZM13.999 13.5002L13.9998 16H12.9998L12.999 13.4998L12.9988 13H12.499H10V12H12.5H13V11.5V9H14V11.5V12H14.5H17V13H14.499H13.9988L13.999 13.5002Z" fill="#09121F" stroke="currentColor"/>
</svg>
