<svg width="22" height="17" viewBox="0 0 22 17" fill="none" xmlns="http://www.w3.org/2000/svg">
<path fill-rule="evenodd" clip-rule="evenodd" d="M2.79201 1.90887C2.79201 1.90887 0.855213 0.360873 0.722013 4.18407C0.588813 7.14687 0.592413 12.8997 1.96401 15.6177C2.54361 16.6401 3.31761 16.3269 4.75761 15.3081C6.01041 14.3829 10.5428 10.2069 12.4616 8.37447C14.3804 6.54207 18.272 1.28607 19.082 4.85727C19.4024 6.35847 19.7984 7.63287 19.496 10.9629C19.4024 11.9889 18.9632 12.7665 16.9616 11.3769C15.4496 10.4049 14.0132 9.36087 14.0132 9.36087C14.0132 9.36087 13.736 8.86407 13.0808 9.67047C12.566 10.3149 12.3068 10.4733 13.1312 10.9629C13.9592 11.4525 18.146 14.3397 19.7516 14.7897C21.0764 15.1749 21.8324 15.1677 21.872 12.5649C21.8648 10.4985 21.746 4.58367 20.9936 2.06367C20.4248 0.494073 19.5896 -0.218727 17.786 1.54527C15.9824 3.30927 10.2944 8.82447 7.18401 11.3229C5.12121 12.8709 4.23921 14.2677 3.46161 11.6865C2.91441 9.73167 2.20521 3.64767 4.44441 4.80687C5.84481 5.47647 6.54321 5.47287 5.99601 5.89407C5.44881 6.31167 3.87561 7.75527 3.87561 7.75527C3.87561 7.75527 3.38961 8.14767 3.61641 8.99727C3.84321 9.59127 3.84321 9.88647 5.06361 8.73807C6.28401 7.58967 7.18401 6.72207 7.18401 6.72207C7.18401 6.72207 7.37841 6.41607 7.95801 6.98127C8.53761 7.54647 8.63121 7.70487 8.63121 7.70487C8.63121 7.70487 8.78601 8.12607 9.40521 7.39527C10.028 6.66447 10.4276 6.21807 9.25041 5.53407C8.07681 4.84287 2.79201 1.90887 2.79201 1.90887Z" fill="white"/>
</svg>
