<svg width="16" height="16" viewBox="0 0 16 16" fill="none" xmlns="http://www.w3.org/2000/svg">
<path d="M4.66634 13.833H7.49967V14.1663H3.99967C3.95547 14.1663 3.91308 14.1488 3.88182 14.1175C3.85057 14.0863 3.83301 14.0439 3.83301 13.9997V1.99967C3.83301 1.95547 3.85057 1.91308 3.88182 1.88182C3.91308 1.85057 3.95547 1.83301 3.99967 1.83301H11.9997C12.0439 1.83301 12.0863 1.85057 12.1175 1.88182C12.1488 1.91308 12.1663 1.95547 12.1663 1.99967V6.16634H11.833V2.66634V2.16634H11.333H4.66634H4.16634V2.66634V13.333V13.833H4.66634ZM13.4997 10.6663V11.1663H13.9997H14.1663V13.9997C14.1663 14.0439 14.1488 14.0863 14.1175 14.1175C14.0863 14.1488 14.0439 14.1663 13.9997 14.1663H9.99967C9.95547 14.1663 9.91308 14.1488 9.88182 14.1175C9.85057 14.0863 9.83301 14.0439 9.83301 13.9997V11.1663H9.99967H10.4997V10.6663V9.99967C10.4997 9.60185 10.6577 9.22032 10.939 8.93901C11.2203 8.65771 11.6018 8.49967 11.9997 8.49967C12.3975 8.49967 12.779 8.65771 13.0603 8.93901C13.3416 9.22032 13.4997 9.60185 13.4997 9.99967V10.6663ZM13.833 11.9997V11.4997H13.333H10.6663H10.1663V11.9997V13.333V13.833H10.6663H13.333H13.833V13.333V11.9997ZM10.833 10.6663V11.1663H11.333H12.6663H13.1663V10.6663V9.99967C13.1663 9.69026 13.0434 9.39351 12.8246 9.17472C12.6058 8.95592 12.3091 8.83301 11.9997 8.83301C11.3984 8.83301 10.833 9.3435 10.833 9.99967V10.6663Z" fill="#09121F" stroke="#00838F"/>
</svg>
