<svg width="155" height="30" viewBox="0 0 155 30" fill="none" xmlns="http://www.w3.org/2000/svg">
<path d="M113.963 8.75V23.75H110.442V17.423H104.262V23.75H100.741V8.75H104.262V15.0059H110.442V8.75H113.963Z" fill="#121A26"/>
<path d="M119.556 11.4514V14.9348H124.444V17.4941H119.556V21.0486H125.926V23.75H115.852V8.75H125.926V11.4514H119.556Z" fill="#121A26"/>
<path d="M144.185 8.75H141.037V23.75H144.185V8.75Z" fill="#121A26"/>
<path d="M144.815 16.2855L149.572 23.0391C149.782 23.3235 149.992 23.5367 150.202 23.6078C150.412 23.6789 150.761 23.75 151.111 23.75H154.259L149.012 16.2855C149.012 16.2855 149.012 16.2855 148.942 16.2145L154.189 8.75H151.041C150.691 8.75 150.412 8.82109 150.132 8.89218C149.922 8.96327 149.642 9.17654 149.502 9.4609L144.815 16.2855Z" fill="#121A26"/>
<path d="M137.389 19.8248C137.46 19.8248 137.53 19.8248 137.6 19.8949C137.671 19.8949 137.741 19.965 137.811 20.035L139.148 21.4369C138.585 22.2079 137.811 22.7687 136.897 23.1893C135.982 23.6098 134.927 23.75 133.731 23.75C132.606 23.75 131.621 23.5397 130.706 23.1893C129.792 22.8388 129.088 22.278 128.455 21.6472C127.822 20.9463 127.329 20.1752 127.048 19.264C126.696 18.3528 126.556 17.3715 126.556 16.25C126.556 15.1285 126.767 14.1472 127.118 13.236C127.47 12.3248 127.963 11.5537 128.596 10.8528C129.229 10.1519 130.003 9.66121 130.917 9.31075C131.832 8.96028 132.817 8.75 133.872 8.75C134.435 8.75 134.927 8.82009 135.42 8.89019C135.912 8.96028 136.334 9.10047 136.827 9.31075C137.249 9.45093 137.671 9.66121 138.023 9.94159C138.374 10.1519 138.726 10.4322 139.007 10.7126L137.882 12.2547C137.811 12.3248 137.741 12.465 137.6 12.535C137.53 12.6051 137.389 12.6752 137.178 12.6752C137.038 12.6752 136.967 12.6752 136.827 12.6051C136.686 12.535 136.616 12.465 136.475 12.3949C136.334 12.3248 136.193 12.2547 136.053 12.1145C135.912 12.0444 135.701 11.9743 135.56 11.8341C135.349 11.764 135.138 11.6939 134.857 11.6238C134.575 11.5537 134.294 11.5537 133.942 11.5537C133.379 11.5537 132.887 11.6238 132.395 11.8341C131.902 12.0444 131.55 12.3248 131.199 12.7453C130.847 13.1659 130.565 13.6565 130.425 14.2173C130.214 14.778 130.143 15.479 130.143 16.1799C130.143 16.9509 130.214 17.5818 130.425 18.2126C130.636 18.7734 130.917 19.264 131.269 19.6846C131.621 20.1051 132.043 20.3855 132.535 20.5958C133.028 20.8061 133.52 20.8762 134.083 20.8762C134.364 20.8762 134.646 20.8762 134.927 20.8061C135.209 20.8061 135.42 20.736 135.631 20.6659C135.842 20.5958 136.053 20.5257 136.264 20.3855C136.475 20.2453 136.686 20.1051 136.827 19.965C136.897 19.8949 136.967 19.8248 137.108 19.8248C137.178 19.8248 137.319 19.8248 137.389 19.8248Z" fill="#121A26"/>
<path d="M97.7227 19.8248C97.7931 19.8248 97.8634 19.8248 97.9338 19.8949C98.0041 19.8949 98.0745 19.965 98.1448 20.035L99.4815 21.4369C98.9187 22.2079 98.1448 22.7687 97.2303 23.1893C96.3157 23.6098 95.2605 23.75 94.0646 23.75C92.939 23.75 91.9541 23.5397 91.0395 23.1893C90.125 22.8388 89.4215 22.278 88.7883 21.6472C88.1552 20.9463 87.6627 20.1752 87.3813 19.264C87.0296 18.3528 86.8889 17.3715 86.8889 16.25C86.8889 15.1285 87.0999 14.1472 87.4517 13.236C87.8034 12.3248 88.2959 11.5537 88.929 10.8528C89.5622 10.1519 90.336 9.66121 91.2506 9.31075C92.1651 8.96028 93.15 8.75 94.2053 8.75C94.7681 8.75 95.2605 8.82009 95.7529 8.89019C96.2454 8.96028 96.6675 9.10047 97.1599 9.31075C97.582 9.45093 98.0041 9.66121 98.3559 9.94159C98.7076 10.1519 99.0594 10.4322 99.3408 10.7126L98.2152 12.2547C98.1448 12.3248 98.0745 12.465 97.9338 12.535C97.8634 12.6051 97.7227 12.6752 97.5117 12.6752C97.371 12.6752 97.3006 12.6752 97.1599 12.6051C97.0192 12.535 96.9489 12.465 96.8082 12.3949C96.6675 12.3248 96.5268 12.2547 96.3861 12.1145C96.2454 12.0444 96.0343 11.9743 95.8936 11.8341C95.6826 11.764 95.4715 11.6939 95.1901 11.6238C94.9088 11.5537 94.6273 11.5537 94.2756 11.5537C93.7128 11.5537 93.2204 11.6238 92.7279 11.8341C92.2355 12.0444 91.8837 12.3248 91.532 12.7453C91.1802 13.1659 90.8988 13.6565 90.7581 14.2173C90.5471 14.778 90.4767 15.479 90.4767 16.1799C90.4767 16.9509 90.5471 17.5818 90.7581 18.2126C90.9692 18.7734 91.2506 19.264 91.6023 19.6846C91.9541 20.1051 92.3762 20.3855 92.8686 20.5958C93.3611 20.8061 93.8535 20.8762 94.4163 20.8762C94.6977 20.8762 94.9791 20.8762 95.2605 20.8061C95.5419 20.8061 95.753 20.736 95.964 20.6659C96.175 20.5958 96.3861 20.5257 96.5971 20.3855C96.8082 20.2453 97.0192 20.1051 97.1599 19.965C97.2303 19.8949 97.3006 19.8248 97.4413 19.8248C97.5117 19.8949 97.6524 19.8248 97.7227 19.8248Z" fill="#121A26"/>
<path d="M52.8889 16.25C52.8889 17.3611 52.7518 18.4028 52.4089 19.3056C52.066 20.2083 51.586 21.0417 50.9688 21.6667C50.3517 22.2917 49.6659 22.8472 48.7745 23.1944C47.9516 23.5417 46.9916 23.75 45.963 23.75C44.9344 23.75 44.0429 23.5417 43.1515 23.1944C42.3286 22.8472 41.5743 22.3611 40.9571 21.6667C40.3399 21.0417 39.8599 20.2083 39.5171 19.3056C39.1742 18.4028 39.037 17.3611 39.037 16.25C39.037 15.1389 39.1742 14.0972 39.5171 13.1944C39.8599 12.2917 40.3399 11.4583 40.9571 10.8333C41.5743 10.2083 42.26 9.65278 43.1515 9.30556C43.9743 8.95833 44.9344 8.75 45.963 8.75C46.9916 8.75 47.883 8.95833 48.7745 9.30556C49.5974 9.65278 50.3517 10.1389 50.9688 10.8333C51.586 11.4583 52.066 12.2917 52.4089 13.1944C52.6832 14.0972 52.8889 15.0694 52.8889 16.25ZM51.7917 16.25C51.7917 15.2083 51.6546 14.3056 51.3803 13.4722C51.106 12.6389 50.6945 11.9444 50.2145 11.3889C49.7345 10.8333 49.1174 10.4167 48.363 10.0694C47.6773 9.79167 46.8544 9.65278 45.963 9.65278C45.0715 9.65278 44.3172 9.79167 43.6315 10.0694C42.9457 10.3472 42.3286 10.8333 41.78 11.3889C41.3 11.9444 40.8885 12.6389 40.6142 13.4722C40.3399 14.3056 40.2028 15.2083 40.2028 16.25C40.2028 17.2917 40.3399 18.1944 40.6142 19.0278C40.8885 19.8611 41.3 20.5556 41.78 21.1111C42.26 21.6667 42.8772 22.0833 43.6315 22.4306C44.3172 22.7083 45.1401 22.8472 45.963 22.8472C46.8544 22.8472 47.6087 22.7083 48.363 22.4306C49.1174 22.1528 49.6659 21.7361 50.2145 21.1111C50.6945 20.5556 51.106 19.8611 51.3803 19.0278C51.6546 18.1944 51.7917 17.2222 51.7917 16.25Z" fill="#121A26"/>
<path d="M68 8.75V23.75H67.5103C67.4403 23.75 67.3704 23.75 67.3004 23.6789C67.2304 23.6789 67.1605 23.6078 67.1605 23.5367L57.5761 10.5273C57.5761 10.7405 57.5761 10.9538 57.5761 11.096V23.75H56.6667V8.75H57.2263C57.2963 8.75 57.3662 8.75 57.4362 8.82109C57.5062 8.82109 57.5761 8.89218 57.5761 8.96327L67.0905 21.9017C67.0905 21.6884 67.0905 21.4751 67.0905 21.3329V8.75H68Z" fill="#121A26"/>
<path d="M81.2222 22.8258V23.75H72.4074V8.75H81.2222V9.67417H73.4568V15.7168H79.893V16.641H73.4568V22.8969H81.2222V22.8258Z" fill="#121A26"/>
<path d="M83.7407 22.8125C83.7407 22.6683 83.7407 22.524 83.8134 22.4519C83.886 22.3077 83.9587 22.2356 84.0313 22.1635C84.104 22.0913 84.2493 22.0192 84.3219 21.9471C84.4672 21.875 84.5399 21.875 84.6852 21.875C84.8305 21.875 84.9758 21.875 85.0484 21.9471C85.1937 22.0192 85.2664 22.0913 85.339 22.1635C85.4117 22.2356 85.4843 22.3798 85.557 22.4519C85.6296 22.5962 85.6296 22.6683 85.6296 22.8125C85.6296 22.9567 85.6296 23.101 85.557 23.1731C85.4843 23.3173 85.4117 23.3894 85.339 23.4615C85.2664 23.5337 85.1211 23.6058 85.0484 23.6779C84.9031 23.75 84.8305 23.75 84.6852 23.75C84.3946 23.75 84.1766 23.6779 83.9587 23.4615C83.8134 23.3173 83.7407 23.0288 83.7407 22.8125Z" fill="#121A26"/>
<path d="M19.5185 0H10.7037V10.4826L15.1676 15L19.5185 10.5405V0Z" fill="#00838F"/>
<path d="M26.2155 10.625L33.3704 3.54167L29.9933 0L19.5185 10.625H20.0337H26.2155Z" fill="#7986CB"/>
<path d="M30.2222 10.625H26.4444L15.1692 21.7699L6.62564 13.4255L9.4735 10.625H0V19.5409H10.6359V30H19.7607V19.5409H30.2222V10.625Z" fill="#D81B60"/>
</svg>
