<svg width="22" height="22" viewBox="0 0 22 22" fill="currentColor" xmlns="http://www.w3.org/2000/svg">
<path d="M16.5284 15.2322L20.4545 19.1573L19.1574 20.4544L15.2323 16.5283C13.7718 17.6991 11.9552 18.3359 10.0833 18.3333C5.52934 18.3333 1.83334 14.6373 1.83334 10.0833C1.83334 5.52925 5.52934 1.83325 10.0833 1.83325C14.6373 1.83325 18.3333 5.52925 18.3333 10.0833C18.336 11.9551 17.6992 13.7717 16.5284 15.2322ZM14.6896 14.552C15.8529 13.3556 16.5026 11.752 16.5 10.0833C16.5 6.53758 13.6281 3.66659 10.0833 3.66659C6.53768 3.66659 3.66668 6.53758 3.66668 10.0833C3.66668 13.628 6.53768 16.4999 10.0833 16.4999C11.7521 16.5025 13.3557 15.8529 14.5521 14.6895L14.6896 14.552Z" fill="currentColor"/>
</svg>
