<svg width="22" height="22" viewBox="0 0 22 22" fill="none" xmlns="http://www.w3.org/2000/svg">
<mask id="path-1-inside-1_4023_5027" fill="white">
<path d="M1.83325 4.58325L8.24992 1.83325L13.7499 4.58325L19.5277 2.10734C19.5974 2.07744 19.6735 2.06532 19.7491 2.07208C19.8247 2.07884 19.8974 2.10426 19.9607 2.14606C20.024 2.18786 20.076 2.24473 20.1119 2.31157C20.1479 2.3784 20.1667 2.45312 20.1666 2.529V17.4166L13.7499 20.1666L8.24992 17.4166L2.47217 19.8925C2.40242 19.9224 2.32634 19.9345 2.25076 19.9278C2.17518 19.921 2.10246 19.8956 2.03912 19.8538C1.97579 19.812 1.92382 19.7551 1.88789 19.6883C1.85196 19.6214 1.83318 19.5467 1.83325 19.4708V4.58325ZM14.6666 17.7787L18.3333 16.2075V4.6135L14.6666 6.18467V17.7787ZM12.8333 17.6586V6.17459L9.16658 4.34125V15.8253L12.8333 17.6586ZM7.33325 15.8152V4.22117L3.66659 5.79233V17.3863L7.33325 15.8152Z"/>
</mask>
<path d="M1.83325 4.58325L8.24992 1.83325L13.7499 4.58325L19.5277 2.10734C19.5974 2.07744 19.6735 2.06532 19.7491 2.07208C19.8247 2.07884 19.8974 2.10426 19.9607 2.14606C20.024 2.18786 20.076 2.24473 20.1119 2.31157C20.1479 2.3784 20.1667 2.45312 20.1666 2.529V17.4166L13.7499 20.1666L8.24992 17.4166L2.47217 19.8925C2.40242 19.9224 2.32634 19.9345 2.25076 19.9278C2.17518 19.921 2.10246 19.8956 2.03912 19.8538C1.97579 19.812 1.92382 19.7551 1.88789 19.6883C1.85196 19.6214 1.83318 19.5467 1.83325 19.4708V4.58325ZM14.6666 17.7787L18.3333 16.2075V4.6135L14.6666 6.18467V17.7787ZM12.8333 17.6586V6.17459L9.16658 4.34125V15.8253L12.8333 17.6586ZM7.33325 15.8152V4.22117L3.66659 5.79233V17.3863L7.33325 15.8152Z" fill="#FAFBFF"/>
<path d="M1.83325 4.58325L1.43933 3.66411L0.833252 3.92386V4.58325H1.83325ZM8.24992 1.83325L8.69713 0.938825L8.2823 0.731408L7.856 0.914107L8.24992 1.83325ZM13.7499 4.58325L13.3027 5.47768L13.7175 5.68509L14.1438 5.50241L13.7499 4.58325ZM19.5277 2.10734L19.9216 3.0265L19.9217 3.02645L19.5277 2.10734ZM20.1666 2.529L19.1666 2.52811V2.529H20.1666ZM20.1666 17.4166L20.5605 18.3357L21.1666 18.076V17.4166H20.1666ZM13.7499 20.1666L13.3027 21.061L13.7175 21.2684L14.1438 21.0857L13.7499 20.1666ZM8.24992 17.4166L8.69713 16.5222L8.28232 16.3148L7.85603 16.4974L8.24992 17.4166ZM2.47217 19.8925L2.07828 18.9733L2.07817 18.9734L2.47217 19.8925ZM1.83325 19.4708L2.83325 19.4717V19.4708H1.83325ZM14.6666 17.7787H13.6666V19.2951L15.0604 18.6978L14.6666 17.7787ZM18.3333 16.2075L18.7271 17.1267L19.3333 16.8669V16.2075H18.3333ZM18.3333 4.6135H19.3333V3.09706L17.9394 3.69433L18.3333 4.6135ZM14.6666 6.18467L14.2727 5.2655L13.6666 5.52523V6.18467H14.6666ZM12.8333 17.6586L12.386 18.553L13.8333 19.2766V17.6586H12.8333ZM12.8333 6.17459H13.8333V5.55655L13.2805 5.28016L12.8333 6.17459ZM9.16658 4.34125L9.6138 3.44682L8.16658 2.72322V4.34125H9.16658ZM9.16658 15.8253H8.16658V16.4433L8.71937 16.7197L9.16658 15.8253ZM7.33325 15.8152L7.72712 16.7343L8.33325 16.4746V15.8152H7.33325ZM7.33325 4.22117H8.33325V2.70473L6.93939 3.302L7.33325 4.22117ZM3.66659 5.79233L3.27272 4.87317L2.66659 5.1329V5.79233H3.66659ZM3.66659 17.3863H2.66659V18.9028L4.06045 18.3055L3.66659 17.3863ZM2.22717 5.5024L8.64384 2.7524L7.856 0.914107L1.43933 3.66411L2.22717 5.5024ZM7.8027 2.72768L13.3027 5.47768L14.1971 3.68882L8.69713 0.938825L7.8027 2.72768ZM14.1438 5.50241L19.9216 3.0265L19.1338 1.18818L13.356 3.66409L14.1438 5.50241ZM19.9217 3.02645C19.8392 3.06178 19.7493 3.0761 19.66 3.06811L19.8381 1.07606C19.5977 1.05455 19.3556 1.09309 19.1337 1.18823L19.9217 3.02645ZM19.66 3.06811C19.5707 3.06012 19.4847 3.03008 19.4099 2.98068L20.5115 1.31144C20.31 1.17844 20.0786 1.09756 19.8381 1.07606L19.66 3.06811ZM19.4099 2.98068C19.335 2.93128 19.2736 2.86407 19.2312 2.78508L20.9927 1.83805C20.8784 1.62539 20.7131 1.44444 20.5115 1.31144L19.4099 2.98068ZM19.2312 2.78508C19.1887 2.70609 19.1665 2.61779 19.1666 2.52811L21.1666 2.52989C21.1668 2.28844 21.1071 2.05072 20.9927 1.83805L19.2312 2.78508ZM19.1666 2.529V17.4166H21.1666V2.529H19.1666ZM19.7727 16.4974L13.356 19.2474L14.1438 21.0857L20.5605 18.3357L19.7727 16.4974ZM14.1971 19.2722L8.69713 16.5222L7.8027 18.311L13.3027 21.061L14.1971 19.2722ZM7.85603 16.4974L2.07828 18.9733L2.86605 20.8117L8.6438 18.3357L7.85603 16.4974ZM2.07817 18.9734C2.16059 18.9381 2.2505 18.9237 2.33983 18.9317L2.16169 20.9238C2.40219 20.9453 2.64425 20.9067 2.86617 20.8116L2.07817 18.9734ZM2.33983 18.9317C2.42916 18.9397 2.51511 18.9698 2.58995 19.0192L1.4883 20.6884C1.68981 20.8214 1.92119 20.9023 2.16169 20.9238L2.33983 18.9317ZM2.58995 19.0192C2.66479 19.0686 2.72621 19.1358 2.76868 19.2148L1.00711 20.1618C1.12144 20.3745 1.28679 20.5554 1.4883 20.6884L2.58995 19.0192ZM2.76868 19.2148C2.81114 19.2937 2.83333 19.382 2.83325 19.4717L0.833253 19.4699C0.833038 19.7114 0.892774 19.9491 1.00711 20.1618L2.76868 19.2148ZM2.83325 19.4708V4.58325H0.833252V19.4708H2.83325ZM15.0604 18.6978L18.7271 17.1267L17.9394 15.2883L14.2727 16.8595L15.0604 18.6978ZM19.3333 16.2075V4.6135H17.3333V16.2075H19.3333ZM17.9394 3.69433L14.2727 5.2655L15.0604 7.10384L18.7271 5.53267L17.9394 3.69433ZM13.6666 6.18467V17.7787H15.6666V6.18467H13.6666ZM13.8333 17.6586V6.17459H11.8333V17.6586H13.8333ZM13.2805 5.28016L9.6138 3.44682L8.71937 5.23568L12.386 7.06901L13.2805 5.28016ZM8.16658 4.34125V15.8253H10.1666V4.34125H8.16658ZM8.71937 16.7197L12.386 18.553L13.2805 16.7642L9.6138 14.9308L8.71937 16.7197ZM8.33325 15.8152V4.22117H6.33325V15.8152H8.33325ZM6.93939 3.302L3.27272 4.87317L4.06045 6.7115L7.72712 5.14034L6.93939 3.302ZM2.66659 5.79233V17.3863H4.66659V5.79233H2.66659ZM4.06045 18.3055L7.72712 16.7343L6.93939 14.896L3.27272 16.4672L4.06045 18.3055Z" fill="#00838F" mask="url(#path-1-inside-1_4023_5027)"/>
</svg>
