<svg width="22" height="22" viewBox="0 0 22 22" fill="none" xmlns="http://www.w3.org/2000/svg">
<path d="M10.6465 19.5119L11 19.8654L11.3536 19.5119L15.8911 14.9744L15.8911 14.9743C16.8583 14.007 17.517 12.7746 17.7838 11.4329C18.0506 10.0912 17.9136 8.70052 17.3901 7.43671C16.8666 6.17289 15.98 5.0927 14.8426 4.33272C13.7052 3.57274 12.368 3.1671 11 3.1671C9.63205 3.1671 8.29481 3.57274 7.15738 4.33272C6.01996 5.0927 5.13343 6.17289 4.6099 7.43671C4.08638 8.70052 3.94936 10.0912 4.21619 11.4329C4.48301 12.7746 5.14169 14.007 6.10893 14.9743L6.10895 14.9744L10.6465 19.5119ZM11 21.0435L5.51989 15.5634C4.43605 14.4796 3.69794 13.0986 3.39891 11.5953C3.09988 10.0919 3.25336 8.53368 3.83995 7.11756C4.42653 5.70143 5.41987 4.49105 6.69434 3.63948C7.96882 2.7879 9.4672 2.33337 11 2.33337C12.5328 2.33337 14.0312 2.7879 15.3057 3.63948C16.5801 4.49105 17.5735 5.70143 18.1601 7.11756C18.7466 8.53368 18.9001 10.0919 18.6011 11.5953C18.3021 13.0986 17.564 14.4796 16.4801 15.5634L11 21.0435ZM11 12.4166C11.6188 12.4166 12.2123 12.1708 12.6499 11.7332C13.0875 11.2956 13.3333 10.7021 13.3333 10.0833C13.3333 9.46446 13.0875 8.87097 12.6499 8.43339C12.2123 7.9958 11.6188 7.74997 11 7.74997C10.3812 7.74997 9.78767 7.9958 9.35009 8.43339C8.9125 8.87097 8.66667 9.46446 8.66667 10.0833C8.66667 10.7021 8.9125 11.2956 9.35009 11.7332C9.78767 12.1708 10.3812 12.4166 11 12.4166ZM11 13.25C10.1602 13.25 9.3547 12.9163 8.76083 12.3225C8.16697 11.7286 7.83334 10.9232 7.83334 10.0833C7.83334 9.24345 8.16697 8.438 8.76083 7.84413C9.3547 7.25027 10.1602 6.91664 11 6.91664C11.8399 6.91664 12.6453 7.25027 13.2392 7.84413C13.833 8.438 14.1667 9.24345 14.1667 10.0833C14.1667 10.9232 13.833 11.7286 13.2392 12.3225C12.6453 12.9163 11.8399 13.25 11 13.25Z" fill="#FAFBFF" stroke="#00838F"/>
</svg>
