<svg width="14" height="14" viewBox="0 0 14 14" fill="none" xmlns="http://www.w3.org/2000/svg">
<mask id="path-1-inside-1_4226_3258" fill="white">
<path d="M2.30999 2.39745L4.67399 10.6708L6.70065 6.61745L10.4587 5.11411L2.30999 2.39745ZM0.932653 0.533447L13.47 4.71211C13.5349 4.73362 13.5916 4.77456 13.6324 4.82938C13.6733 4.8842 13.6963 4.95025 13.6983 5.01858C13.7003 5.08691 13.6813 5.15422 13.6438 5.21138C13.6063 5.26853 13.5521 5.31278 13.4887 5.33811L7.66665 7.66678L4.71665 13.5668C4.68663 13.6269 4.63917 13.6765 4.58047 13.7091C4.52177 13.7417 4.45459 13.7559 4.38771 13.7497C4.32084 13.7435 4.25739 13.7172 4.2057 13.6744C4.154 13.6315 4.11645 13.574 4.09799 13.5094L0.506653 0.94078C0.490018 0.88239 0.489646 0.820565 0.505577 0.761979C0.521509 0.703392 0.553139 0.65027 0.597053 0.608345C0.640968 0.56642 0.695499 0.537286 0.754761 0.524086C0.814022 0.510887 0.875763 0.514123 0.93332 0.533447H0.932653Z"/>
</mask>
<path d="M2.30999 2.39745L4.67399 10.6708L6.70065 6.61745L10.4587 5.11411L2.30999 2.39745ZM0.932653 0.533447L13.47 4.71211C13.5349 4.73362 13.5916 4.77456 13.6324 4.82938C13.6733 4.8842 13.6963 4.95025 13.6983 5.01858C13.7003 5.08691 13.6813 5.15422 13.6438 5.21138C13.6063 5.26853 13.5521 5.31278 13.4887 5.33811L7.66665 7.66678L4.71665 13.5668C4.68663 13.6269 4.63917 13.6765 4.58047 13.7091C4.52177 13.7417 4.45459 13.7559 4.38771 13.7497C4.32084 13.7435 4.25739 13.7172 4.2057 13.6744C4.154 13.6315 4.11645 13.574 4.09799 13.5094L0.506653 0.94078C0.490018 0.88239 0.489646 0.820565 0.505577 0.761979C0.521509 0.703392 0.553139 0.65027 0.597053 0.608345C0.640968 0.56642 0.695499 0.537286 0.754761 0.524086C0.814022 0.510887 0.875763 0.514123 0.93332 0.533447H0.932653Z" fill="#09121F"/>
<path d="M2.30999 2.39745L2.7844 0.974445L0.0863271 0.0749411L0.867709 2.80956L2.30999 2.39745ZM4.67399 10.6708L3.23171 11.0829L4.29114 14.7906L6.01563 11.3416L4.67399 10.6708ZM6.70065 6.61745L6.14352 5.22475L5.61405 5.43656L5.35901 5.94663L6.70065 6.61745ZM10.4587 5.11411L11.0158 6.50681L14.8173 4.98607L10.9331 3.69111L10.4587 5.11411ZM0.932653 0.533447V-0.966553L0.458357 1.95649L0.932653 0.533447ZM13.47 4.71211L12.9957 6.13515L12.9981 6.13594L13.47 4.71211ZM13.4887 5.33811L12.9327 3.94494L12.9316 3.94539L13.4887 5.33811ZM7.66665 7.66678L7.10959 6.27405L6.58007 6.48585L6.32501 6.99596L7.66665 7.66678ZM4.71665 13.5668L3.37501 12.896L3.37483 12.8963L4.71665 13.5668ZM4.09799 13.5094L2.65571 13.9216L2.65581 13.9219L4.09799 13.5094ZM0.506653 0.94078L-0.935942 1.35178L-0.935624 1.35289L0.506653 0.94078ZM0.93332 0.533447V2.03345L1.41073 -0.888554L0.93332 0.533447ZM0.867709 2.80956L3.23171 11.0829L6.11626 10.2587L3.75226 1.98533L0.867709 2.80956ZM6.01563 11.3416L8.04229 7.28827L5.35901 5.94663L3.33235 9.99996L6.01563 11.3416ZM7.25778 8.01014L11.0158 6.50681L9.90152 3.72141L6.14352 5.22475L7.25778 8.01014ZM10.9331 3.69111L2.7844 0.974445L1.83558 3.82045L9.98424 6.53711L10.9331 3.69111ZM0.458357 1.95649L12.9957 6.13515L13.9443 3.28907L1.40695 -0.889593L0.458357 1.95649ZM12.9981 6.13594C12.7709 6.06066 12.5725 5.91737 12.4295 5.7255L14.8353 3.93326C14.6107 3.63175 14.2988 3.40658 13.9419 3.28829L12.9981 6.13594ZM12.4295 5.7255C12.2866 5.53364 12.2061 5.30245 12.199 5.06329L15.1976 4.97387C15.1864 4.59805 15.0599 4.23477 14.8353 3.93326L12.4295 5.7255ZM12.199 5.06329C12.1918 4.82413 12.2584 4.58857 12.3897 4.38852L14.898 6.03423C15.1042 5.71987 15.2088 5.3497 15.1976 4.97387L12.199 5.06329ZM12.3897 4.38852C12.5209 4.18847 12.7105 4.03361 12.9327 3.94494L14.0446 6.73129C14.3938 6.59194 14.6917 6.34859 14.898 6.03423L12.3897 4.38852ZM12.9316 3.94539L7.10959 6.27405L8.22371 9.05951L14.0457 6.73084L12.9316 3.94539ZM6.32501 6.99596L3.37501 12.896L6.05829 14.2376L9.00829 8.3376L6.32501 6.99596ZM3.37483 12.8963C3.4799 12.686 3.64603 12.5124 3.85147 12.3982L5.30947 15.02C5.6323 14.8405 5.89337 14.5677 6.05848 14.2372L3.37483 12.8963ZM3.85147 12.3982C4.05691 12.2839 4.29207 12.2344 4.52613 12.2561L4.2493 15.2433C4.6171 15.2774 4.98663 15.1996 5.30947 15.02L3.85147 12.3982ZM4.52613 12.2561C4.76019 12.2778 4.98224 12.3697 5.16318 12.5197L3.24821 14.829C3.53255 15.0648 3.88149 15.2092 4.2493 15.2433L4.52613 12.2561ZM5.16318 12.5197C5.34413 12.6698 5.47553 12.871 5.54016 13.097L2.65581 13.9219C2.75738 14.2771 2.96387 14.5932 3.24821 14.829L5.16318 12.5197ZM5.54026 13.0973L1.94893 0.528668L-0.935624 1.35289L2.65571 13.9216L5.54026 13.0973ZM1.94925 0.52978C2.00747 0.734147 2.00877 0.950534 1.95301 1.15558L-0.94186 0.368372C-1.02948 0.690596 -1.02744 1.03063 -0.935941 1.35178L1.94925 0.52978ZM1.95301 1.15558C1.89725 1.36064 1.78655 1.54656 1.63285 1.6933L-0.438741 -0.476611C-0.680272 -0.246024 -0.854237 0.0461495 -0.94186 0.368372L1.95301 1.15558ZM1.63285 1.6933C1.47914 1.84004 1.28829 1.94201 1.08087 1.98821L0.428648 -0.940035C0.102713 -0.867437 -0.197209 -0.707199 -0.438741 -0.476611L1.63285 1.6933ZM1.08087 1.98821C0.873459 2.03441 0.657365 2.02308 0.455915 1.95545L1.41073 -0.888554C1.09416 -0.994833 0.754585 -1.01263 0.428648 -0.940035L1.08087 1.98821ZM0.93332 -0.966553H0.932653V2.03345H0.93332V-0.966553Z" fill="#00838F" mask="url(#path-1-inside-1_4226_3258)"/>
</svg>
