<svg width="24" height="24" viewBox="0 0 24 24" fill="none" xmlns="http://www.w3.org/2000/svg">
<path d="M13.1202 17.023L8.92121 14.733C8.373 15.319 7.66119 15.7266 6.87828 15.9028C6.09537 16.0791 5.27756 16.0157 4.53113 15.721C3.7847 15.4263 3.14417 14.9139 2.69277 14.2504C2.24138 13.5869 2 12.803 2 12.0005C2 11.198 2.24138 10.414 2.69277 9.75051C3.14417 9.08701 3.7847 8.57461 4.53113 8.27992C5.27756 7.98523 6.09537 7.92187 6.87828 8.09807C7.66119 8.27428 8.373 8.6819 8.92121 9.26796L13.1212 6.97796C12.8828 6.03403 12.9968 5.03555 13.4418 4.16966C13.8869 3.30378 14.6325 2.62994 15.5389 2.27446C16.4452 1.91898 17.4501 1.90626 18.3652 2.23869C19.2803 2.57112 20.0427 3.22588 20.5095 4.08022C20.9764 4.93457 21.1156 5.92985 20.9011 6.8795C20.6866 7.82916 20.1332 8.668 19.3444 9.23877C18.5557 9.80954 17.5859 10.0731 16.6168 9.97995C15.6477 9.88684 14.7458 9.44347 14.0802 8.73296L9.88021 11.023C10.0414 11.6643 10.0414 12.3356 9.88021 12.977L14.0792 15.267C14.7448 14.5564 15.6467 14.1131 16.6158 14.02C17.5849 13.9268 18.5547 14.1904 19.3434 14.7611C20.1322 15.3319 20.6856 16.1708 20.9001 17.1204C21.1146 18.0701 20.9754 19.0654 20.5085 19.9197C20.0417 20.774 19.2793 21.4288 18.3642 21.7612C17.4491 22.0937 16.4442 22.0809 15.5379 21.7255C14.6315 21.37 13.8859 20.6961 13.4408 19.8303C12.9958 18.9644 12.8818 17.9659 13.1202 17.022V17.023ZM6.00021 14C6.53064 14 7.03935 13.7892 7.41442 13.4142C7.78949 13.0391 8.00021 12.5304 8.00021 12C8.00021 11.4695 7.78949 10.9608 7.41442 10.5857C7.03935 10.2107 6.53064 9.99996 6.00021 9.99996C5.46977 9.99996 4.96107 10.2107 4.58599 10.5857C4.21092 10.9608 4.00021 11.4695 4.00021 12C4.00021 12.5304 4.21092 13.0391 4.58599 13.4142C4.96107 13.7892 5.46977 14 6.00021 14ZM17.0002 7.99996C17.5306 7.99996 18.0393 7.78925 18.4144 7.41417C18.7895 7.0391 19.0002 6.53039 19.0002 5.99996C19.0002 5.46953 18.7895 4.96082 18.4144 4.58575C18.0393 4.21067 17.5306 3.99996 17.0002 3.99996C16.4698 3.99996 15.9611 4.21067 15.586 4.58575C15.2109 4.96082 15.0002 5.46953 15.0002 5.99996C15.0002 6.53039 15.2109 7.0391 15.586 7.41417C15.9611 7.78925 16.4698 7.99996 17.0002 7.99996ZM17.0002 20C17.5306 20 18.0393 19.7892 18.4144 19.4142C18.7895 19.0391 19.0002 18.5304 19.0002 18C19.0002 17.4695 18.7895 16.9608 18.4144 16.5857C18.0393 16.2107 17.5306 16 17.0002 16C16.4698 16 15.9611 16.2107 15.586 16.5857C15.2109 16.9608 15.0002 17.4695 15.0002 18C15.0002 18.5304 15.2109 19.0391 15.586 19.4142C15.9611 19.7892 16.4698 20 17.0002 20Z" fill="#09121F"/>
</svg>
