<svg width="28" height="28" viewBox="0 0 28 28" fill="none" xmlns="http://www.w3.org/2000/svg">
<path d="M19.8335 3.50008H24.5002C24.8096 3.50008 25.1063 3.623 25.3251 3.84179C25.5439 4.06058 25.6668 4.35733 25.6668 4.66675V23.3334C25.6668 23.6428 25.5439 23.9396 25.3251 24.1584C25.1063 24.3772 24.8096 24.5001 24.5002 24.5001H3.50016C3.19074 24.5001 2.894 24.3772 2.6752 24.1584C2.45641 23.9396 2.3335 23.6428 2.3335 23.3334V4.66675C2.3335 4.35733 2.45641 4.06058 2.6752 3.84179C2.894 3.623 3.19074 3.50008 3.50016 3.50008H8.16683V1.16675H10.5002V3.50008H17.5002V1.16675H19.8335V3.50008ZM17.5002 5.83341H10.5002V8.16675H8.16683V5.83341H4.66683V10.5001H23.3335V5.83341H19.8335V8.16675H17.5002V5.83341ZM23.3335 12.8334H4.66683V22.1667H23.3335V12.8334Z" fill="#00838F"/>
</svg>
