<svg width="25" height="25" viewBox="0 0 25 25" fill="currentColor" xmlns="http://www.w3.org/2000/svg">
<path d="M15.6787 19.7452L16.0016 19.559L15.9154 19.1964C15.8067 18.7388 15.8067 18.2622 15.9154 17.8046L16.0015 17.4423L15.6791 17.256L15.12 16.9331L15.6199 16.0671L16.1789 16.39L16.502 16.5766L16.7728 16.32C17.114 15.9968 17.5265 15.7585 17.9769 15.6241L18.334 15.5177V15.145V14.5H19.334V15.145V15.5181L19.6916 15.6243C20.1467 15.7594 20.5581 16.0009 20.8953 16.3201L21.1661 16.5765L21.4891 16.39L22.048 16.0671L22.548 16.9331L21.9889 17.256L21.6665 17.4423L21.7525 17.8045C21.8611 18.2618 21.8611 18.7382 21.7525 19.1955L21.6665 19.5577L21.9889 19.744L22.548 20.0669L22.048 20.9329L21.4891 20.61L21.166 20.4234L20.8952 20.68C20.5539 21.0032 20.1415 21.2415 19.6911 21.3759L19.334 21.4823V21.855V22.5H18.334V21.855V21.4823L17.9769 21.3759C17.5265 21.2415 17.114 21.0032 16.7728 20.68L16.502 20.4234L16.1789 20.61L15.6199 20.9329L15.1201 20.0672L15.6787 19.7452ZM5.35066 22C5.47129 20.1935 6.24248 18.4849 7.53068 17.1967C8.81889 15.9085 10.5275 15.1373 12.334 15.0167V16.0192C10.793 16.1381 9.33838 16.8032 8.23779 17.9038C7.1372 19.0044 6.47206 20.459 6.35323 22H5.35066ZM12.834 13C9.79513 13 7.33398 10.5389 7.33398 7.5C7.33398 4.46114 9.79513 2 12.834 2C15.8728 2 18.334 4.46114 18.334 7.5C18.334 10.5389 15.8728 13 12.834 13ZM12.834 12C15.3201 12 17.334 9.98614 17.334 7.5C17.334 5.01386 15.3201 3 12.834 3C10.3478 3 8.33398 5.01386 8.33398 7.5C8.33398 9.98614 10.3478 12 12.834 12ZM18.834 20.5C19.3644 20.5 19.8731 20.2893 20.2482 19.9142C20.6233 19.5391 20.834 19.0304 20.834 18.5C20.834 17.9696 20.6233 17.4609 20.2482 17.0858C19.8731 16.7107 19.3644 16.5 18.834 16.5C18.3036 16.5 17.7948 16.7107 17.4198 17.0858C17.0447 17.4609 16.834 17.9696 16.834 18.5C16.834 19.0304 17.0447 19.5391 17.4198 19.9142C17.7948 20.2893 18.3036 20.5 18.834 20.5Z" fill="currentColor" stroke="currentColor"/>
</svg>
