<svg width="24" height="25" viewBox="0 0 24 25" fill="none" xmlns="http://www.w3.org/2000/svg">
<path d="M17.841 16.159L18.017 16.336L18.195 16.159C18.4039 15.9501 18.652 15.7843 18.925 15.6713C19.1979 15.5582 19.4905 15.5 19.786 15.5C20.0815 15.5 20.3741 15.5582 20.647 15.6713C20.92 15.7843 21.1681 15.9501 21.377 16.159C21.5859 16.3679 21.7517 16.616 21.8647 16.889C21.9778 17.1619 22.036 17.4545 22.036 17.75C22.036 18.0455 21.9778 18.3381 21.8647 18.611C21.7517 18.884 21.5859 19.1321 21.377 19.341L18.017 22.7L14.659 19.341C14.237 18.919 14 18.3467 14 17.75C14 17.1533 14.237 16.581 14.659 16.159C15.081 15.737 15.6533 15.5 16.25 15.5C16.8467 15.5 17.419 15.737 17.841 16.159ZM12 14.5V16.5C10.4087 16.5 8.88258 17.1321 7.75736 18.2574C6.63214 19.3826 6 20.9087 6 22.5H4C4.00002 20.4216 4.80894 18.4247 6.25547 16.9323C7.702 15.4398 9.67259 14.569 11.75 14.504L12 14.5ZM12 1.5C15.315 1.5 18 4.185 18 7.5C18.0006 9.05253 17.3991 10.5448 16.3221 11.663C15.2451 12.7812 13.7765 13.4383 12.225 13.496L12 13.5C8.685 13.5 6 10.815 6 7.5C5.99944 5.94747 6.6009 4.45521 7.67791 3.33699C8.75491 2.21877 10.2235 1.56172 11.775 1.504L12 1.5ZM12 3.5C9.79 3.5 8 5.29 8 7.5C8 9.71 9.79 11.5 12 11.5C14.21 11.5 16 9.71 16 7.5C16 5.29 14.21 3.5 12 3.5Z" fill="#FACC15"/>
</svg>
