<svg width="37" height="44" viewBox="0 0 37 44" fill="none" xmlns="http://www.w3.org/2000/svg">
<g clip-path="url(#clip0_1282_9877)" filter="url(#filter0_d_1282_9877)">
<path d="M27.8175 26.3025L18.1774 35.9425L8.5374 26.3025C6.6308 24.3959 5.3324 21.9667 4.80638 19.3222C4.28036 16.6776 4.55035 13.9365 5.58221 11.4454C6.61406 8.95429 8.36144 6.82511 10.6034 5.32711C12.8453 3.8291 15.4811 3.02954 18.1774 3.02954C20.8738 3.02954 23.5096 3.8291 25.7515 5.32711C27.9935 6.82511 29.7408 8.95429 30.7727 11.4454C31.8045 13.9365 32.0745 16.6776 31.5485 19.3222C31.0225 21.9667 29.7241 24.3959 27.8175 26.3025ZM18.1774 22.7215C19.7844 22.7215 21.3256 22.0832 22.4619 20.9469C23.5982 19.8106 24.2366 18.2694 24.2366 16.6624C24.2366 15.0555 23.5982 13.5143 22.4619 12.378C21.3256 11.2417 19.7844 10.6033 18.1774 10.6033C16.5705 10.6033 15.0293 11.2417 13.893 12.378C12.7567 13.5143 12.1183 15.0555 12.1183 16.6624C12.1183 18.2694 12.7567 19.8106 13.893 20.9469C15.0293 22.0832 16.5705 22.7215 18.1774 22.7215ZM18.1774 19.692C17.374 19.692 16.6034 19.3728 16.0352 18.8046C15.4671 18.2365 15.1479 17.4659 15.1479 16.6624C15.1479 15.8589 15.4671 15.0884 16.0352 14.5202C16.6034 13.9521 17.374 13.6329 18.1774 13.6329C18.9809 13.6329 19.7515 13.9521 20.3197 14.5202C20.8878 15.0884 21.207 15.8589 21.207 16.6624C21.207 17.4659 20.8878 18.2365 20.3197 18.8046C19.7515 19.3728 18.9809 19.692 18.1774 19.692Z" fill="#F50057"/>
</g>
<defs>
<filter id="filter0_d_1282_9877" x="-4" y="0" width="44.3545" height="44.3547" filterUnits="userSpaceOnUse" color-interpolation-filters="sRGB">
<feFlood flood-opacity="0" result="BackgroundImageFix"/>
<feColorMatrix in="SourceAlpha" type="matrix" values="0 0 0 0 0 0 0 0 0 0 0 0 0 0 0 0 0 0 127 0" result="hardAlpha"/>
<feOffset dy="4"/>
<feGaussianBlur stdDeviation="2"/>
<feComposite in2="hardAlpha" operator="out"/>
<feColorMatrix type="matrix" values="0 0 0 0 0 0 0 0 0 0 0 0 0 0 0 0 0 0 0.25 0"/>
<feBlend mode="normal" in2="BackgroundImageFix" result="effect1_dropShadow_1282_9877"/>
<feBlend mode="normal" in="SourceGraphic" in2="effect1_dropShadow_1282_9877" result="shape"/>
</filter>
<clipPath id="clip0_1282_9877">
<rect width="36.3547" height="36.3547" fill="white"/>
</clipPath>
</defs>
</svg>
