<svg width="37" height="45" viewBox="0 0 37 45" fill="none" xmlns="http://www.w3.org/2000/svg">
<g clip-path="url(#clip0_1282_9881)" filter="url(#filter0_d_1282_9881)">
<path d="M28.1871 27.1645L18.5471 36.8046L8.90702 27.1645C7.00043 25.2579 5.70203 22.8288 5.17601 20.1842C4.64999 17.5397 4.91998 14.7985 5.95184 12.3074C6.98369 9.81635 8.73107 7.68717 10.973 6.18917C13.2149 4.69116 15.8507 3.8916 18.5471 3.8916C21.2434 3.8916 23.8792 4.69116 26.1211 6.18917C28.3631 7.68717 30.1105 9.81635 31.1423 12.3074C32.1742 14.7985 32.4442 17.5397 31.9181 20.1842C31.3921 22.8288 30.0937 25.2579 28.1871 27.1645ZM18.5471 23.5836C20.1541 23.5836 21.6952 22.9452 22.8315 21.8089C23.9678 20.6726 24.6062 19.1315 24.6062 17.5245C24.6062 15.9175 23.9678 14.3764 22.8315 13.24C21.6952 12.1037 20.1541 11.4654 18.5471 11.4654C16.9401 11.4654 15.3989 12.1037 14.2626 13.24C13.1263 14.3764 12.488 15.9175 12.488 17.5245C12.488 19.1315 13.1263 20.6726 14.2626 21.8089C15.3989 22.9452 16.9401 23.5836 18.5471 23.5836ZM18.5471 20.554C17.7436 20.554 16.973 20.2349 16.4049 19.6667C15.8367 19.0986 15.5175 18.328 15.5175 17.5245C15.5175 16.721 15.8367 15.9504 16.4049 15.3823C16.973 14.8141 17.7436 14.4949 18.5471 14.4949C19.3506 14.4949 20.1211 14.8141 20.6893 15.3823C21.2574 15.9504 21.5766 16.721 21.5766 17.5245C21.5766 18.328 21.2574 19.0986 20.6893 19.6667C20.1211 20.2349 19.3506 20.554 18.5471 20.554Z" fill="#121A26"/>
</g>
<defs>
<filter id="filter0_d_1282_9881" x="-3.63037" y="0.862061" width="44.3545" height="44.3547" filterUnits="userSpaceOnUse" color-interpolation-filters="sRGB">
<feFlood flood-opacity="0" result="BackgroundImageFix"/>
<feColorMatrix in="SourceAlpha" type="matrix" values="0 0 0 0 0 0 0 0 0 0 0 0 0 0 0 0 0 0 127 0" result="hardAlpha"/>
<feOffset dy="4"/>
<feGaussianBlur stdDeviation="2"/>
<feComposite in2="hardAlpha" operator="out"/>
<feColorMatrix type="matrix" values="0 0 0 0 0 0 0 0 0 0 0 0 0 0 0 0 0 0 0.25 0"/>
<feBlend mode="normal" in2="BackgroundImageFix" result="effect1_dropShadow_1282_9881"/>
<feBlend mode="normal" in="SourceGraphic" in2="effect1_dropShadow_1282_9881" result="shape"/>
</filter>
<clipPath id="clip0_1282_9881">
<rect width="36.3547" height="36.3547" fill="white" transform="translate(0.369629 0.862061)"/>
</clipPath>
</defs>
</svg>
