<svg width="263" height="51" viewBox="0 0 263 51" fill="none" xmlns="http://www.w3.org/2000/svg">
<path d="M193.737 14.875V40.375H187.751V29.6191H177.245V40.375H171.259V14.875H177.245V25.5101H187.751V14.875H193.737Z" fill="#121A26"/>
<path d="M203.244 19.4674V25.3892H211.555V29.7399H203.244V35.7826H214.074V40.375H196.948V14.875H214.074V19.4674H203.244Z" fill="#121A26"/>
<path d="M245.115 14.875H239.763V40.375H245.115V14.875Z" fill="#121A26"/>
<path d="M246.185 27.6854L254.273 39.1665C254.629 39.6499 254.986 40.0124 255.343 40.1333C255.7 40.2541 256.294 40.375 256.889 40.375H262.241L253.321 27.6854C253.321 27.6854 253.321 27.6854 253.202 27.5646L262.122 14.875H256.77C256.175 14.875 255.7 14.9959 255.224 15.1167C254.867 15.2376 254.391 15.6001 254.154 16.0835L246.185 27.6854Z" fill="#121A26"/>
<path d="M233.562 33.7021C233.682 33.7021 233.801 33.7021 233.921 33.8213C234.04 33.8213 234.16 33.9404 234.28 34.0596L236.552 36.4428C235.595 37.7535 234.28 38.7068 232.725 39.4217C231.17 40.1367 229.376 40.375 227.343 40.375C225.43 40.375 223.755 40.0175 222.201 39.4217C220.646 38.8259 219.45 37.8727 218.374 36.8002C217.297 35.6086 216.46 34.2979 215.982 32.7488C215.384 31.1998 215.145 29.5315 215.145 27.625C215.145 25.7185 215.503 24.0502 216.101 22.5012C216.699 20.9521 217.536 19.6414 218.613 18.4498C219.689 17.2582 221.005 16.4241 222.559 15.8283C224.114 15.2325 225.788 14.875 227.582 14.875C228.539 14.875 229.376 14.9942 230.213 15.1133C231.051 15.2325 231.768 15.4708 232.605 15.8283C233.323 16.0666 234.04 16.4241 234.638 16.9007C235.236 17.2582 235.834 17.7348 236.313 18.2114L234.399 20.8329C234.28 20.9521 234.16 21.1904 233.921 21.3096C233.801 21.4287 233.562 21.5479 233.203 21.5479C232.964 21.5479 232.845 21.5479 232.605 21.4287C232.366 21.3096 232.247 21.1904 232.007 21.0713C231.768 20.9521 231.529 20.8329 231.29 20.5946C231.051 20.4755 230.692 20.3563 230.453 20.118C230.094 19.9988 229.735 19.8797 229.257 19.7605C228.778 19.6414 228.3 19.6414 227.702 19.6414C226.745 19.6414 225.908 19.7605 225.071 20.118C224.234 20.4755 223.636 20.9521 223.038 21.6671C222.44 22.382 221.961 23.2161 221.722 24.1694C221.363 25.1227 221.244 26.3143 221.244 27.5058C221.244 28.8166 221.363 29.889 221.722 30.9615C222.081 31.9147 222.559 32.7488 223.157 33.4638C223.755 34.1787 224.473 34.6554 225.31 35.0128C226.147 35.3703 226.984 35.4895 227.941 35.4895C228.42 35.4895 228.898 35.4895 229.376 35.3703C229.855 35.3703 230.213 35.2512 230.572 35.132C230.931 35.0129 231.29 34.8937 231.649 34.6554C232.007 34.4171 232.366 34.1787 232.605 33.9404C232.725 33.8213 232.844 33.7021 233.084 33.7021C233.203 33.7021 233.442 33.7021 233.562 33.7021Z" fill="#121A26"/>
<path d="M166.129 33.7021C166.248 33.7021 166.368 33.7021 166.488 33.8213C166.607 33.8213 166.727 33.9404 166.846 34.0596L169.119 36.4428C168.162 37.7535 166.846 38.7068 165.292 39.4217C163.737 40.1367 161.943 40.375 159.91 40.375C157.996 40.375 156.322 40.0175 154.767 39.4217C153.213 38.8259 152.017 37.8727 150.94 36.8002C149.864 35.6086 149.027 34.2979 148.548 32.7488C147.95 31.1998 147.711 29.5315 147.711 27.625C147.711 25.7185 148.07 24.0502 148.668 22.5012C149.266 20.9521 150.103 19.6414 151.179 18.4498C152.256 17.2582 153.571 16.4241 155.126 15.8283C156.681 15.2325 158.355 14.875 160.149 14.875C161.106 14.875 161.943 14.9942 162.78 15.1133C163.617 15.2325 164.335 15.4708 165.172 15.8283C165.89 16.0666 166.607 16.4241 167.205 16.9007C167.803 17.2582 168.401 17.7348 168.879 18.2114L166.966 20.8329C166.846 20.9521 166.727 21.1904 166.488 21.3096C166.368 21.4287 166.129 21.5479 165.77 21.5479C165.531 21.5479 165.411 21.5479 165.172 21.4287C164.933 21.3096 164.813 21.1904 164.574 21.0713C164.335 20.9521 164.096 20.8329 163.856 20.5946C163.617 20.4755 163.258 20.3563 163.019 20.118C162.66 19.9988 162.302 19.8797 161.823 19.7605C161.345 19.6414 160.867 19.6414 160.269 19.6414C159.312 19.6414 158.475 19.7605 157.638 20.118C156.8 20.4755 156.202 20.9521 155.604 21.6671C155.006 22.382 154.528 23.2161 154.289 24.1694C153.93 25.1227 153.811 26.3143 153.811 27.5058C153.811 28.8166 153.93 29.889 154.289 30.9615C154.648 31.9147 155.126 32.7488 155.724 33.4638C156.322 34.1787 157.04 34.6554 157.877 35.0128C158.714 35.3703 159.551 35.4895 160.508 35.4895C160.986 35.4895 161.465 35.4895 161.943 35.3703C162.421 35.3703 162.78 35.2512 163.139 35.132C163.498 35.0129 163.856 34.8937 164.215 34.6554C164.574 34.4171 164.933 34.1787 165.172 33.9404C165.292 33.8213 165.411 33.7021 165.65 33.7021C165.77 33.8213 166.009 33.7021 166.129 33.7021Z" fill="#121A26"/>
<path d="M89.9112 27.625C89.9112 29.5139 89.678 31.2847 89.0952 32.8194C88.5123 34.3542 87.6963 35.7708 86.6471 36.8333C85.5979 37.8958 84.4322 38.8403 82.9167 39.4306C81.5178 40.0208 79.8857 40.375 78.1371 40.375C76.3885 40.375 74.873 40.0208 73.3575 39.4306C71.9586 38.8403 70.6763 38.0139 69.6271 36.8333C68.578 35.7708 67.7619 34.3542 67.1791 32.8194C66.5962 31.2847 66.363 29.5139 66.363 27.625C66.363 25.7361 66.5962 23.9653 67.1791 22.4306C67.7619 20.8958 68.578 19.4792 69.6271 18.4167C70.6763 17.3542 71.8421 16.4097 73.3575 15.8194C74.7564 15.2292 76.3885 14.875 78.1371 14.875C79.8857 14.875 81.4012 15.2292 82.9167 15.8194C84.3156 16.4097 85.5979 17.2361 86.6471 18.4167C87.6963 19.4792 88.5123 20.8958 89.0952 22.4306C89.5615 23.9653 89.9112 25.6181 89.9112 27.625ZM88.046 27.625C88.046 25.8542 87.8128 24.3194 87.3465 22.9028C86.8802 21.4861 86.1808 20.3056 85.3648 19.3611C84.5487 18.4167 83.4996 17.7083 82.2172 17.1181C81.0515 16.6458 79.6526 16.4097 78.1371 16.4097C76.6216 16.4097 75.3393 16.6458 74.1736 17.1181C73.0078 17.5903 71.9586 18.4167 71.026 19.3611C70.21 20.3056 69.5106 21.4861 69.0443 22.9028C68.578 24.3194 68.3448 25.8542 68.3448 27.625C68.3448 29.3958 68.578 30.9306 69.0443 32.3472C69.5106 33.7639 70.21 34.9444 71.026 35.8889C71.8421 36.8333 72.8912 37.5417 74.1736 38.1319C75.3393 38.6042 76.7382 38.8403 78.1371 38.8403C79.6526 38.8403 80.9349 38.6042 82.2172 38.1319C83.4996 37.6597 84.4322 36.9514 85.3648 35.8889C86.1808 34.9444 86.8802 33.7639 87.3465 32.3472C87.8128 30.9306 88.046 29.2778 88.046 27.625Z" fill="#121A26"/>
<path d="M115.6 14.875V40.375H114.768C114.649 40.375 114.53 40.375 114.411 40.2541C114.292 40.2541 114.173 40.1333 114.173 40.0124L97.8796 17.8963C97.8796 18.2589 97.8796 18.6214 97.8796 18.8632V40.375H96.3335V14.875H97.2849C97.4039 14.875 97.5228 14.875 97.6417 14.9959C97.7607 14.9959 97.8796 15.1167 97.8796 15.2376L114.054 37.2328C114.054 36.8703 114.054 36.5077 114.054 36.266V14.875H115.6Z" fill="#121A26"/>
<path d="M138.078 38.8039V40.375H123.093V14.875H138.078V16.4461H124.877V26.7186H135.818V28.2897H124.877V38.9248H138.078V38.8039Z" fill="#121A26"/>
<path d="M142.359 38.7813C142.359 38.5361 142.359 38.2909 142.483 38.1683C142.606 37.9231 142.73 37.8005 142.853 37.6779C142.977 37.5553 143.224 37.4327 143.347 37.3101C143.594 37.1875 143.718 37.1875 143.965 37.1875C144.212 37.1875 144.459 37.1875 144.582 37.3101C144.829 37.4327 144.953 37.5553 145.076 37.6779C145.2 37.8005 145.323 38.0457 145.447 38.1683C145.57 38.4135 145.57 38.5361 145.57 38.7813C145.57 39.0264 145.57 39.2716 145.447 39.3942C145.323 39.6394 145.2 39.762 145.076 39.8846C144.953 40.0072 144.706 40.1298 144.582 40.2524C144.335 40.375 144.212 40.375 143.965 40.375C143.471 40.375 143.1 40.2524 142.73 39.8846C142.483 39.6394 142.359 39.149 142.359 38.7813Z" fill="#121A26"/>
<path d="M33.1812 0H18.196V17.8205L25.7847 25.5L33.1812 17.9189V0Z" fill="#00838F"/>
<path d="M44.5665 18.0625L56.7298 6.02083L50.9887 0L33.1816 18.0625H34.0574H44.5665Z" fill="#7986CB"/>
<path d="M51.3778 18.0625H44.9556L25.7877 37.0089L11.2636 22.8234L16.105 18.0625H0V33.2196H18.081V51H33.5932V33.2196H51.3778V18.0625Z" fill="#D81B60"/>
</svg>
